# xmcd CD database file
#
# Track frame offsets:
#	150
#	14186
#	26238
#	39642
#	53054
#	72964
#	88327
#	108019
#	125883
#	143710
#	159659
#
# Disc length: 2408 seconds
#
# Revision: 0
# Processed by: cddbd v1.5.2PL0 Copyright (c) Steve Scherf et al.
# Submitted via: CDex 1.78
#
DISCID=a009660b
DTITLE=G D Sweeney - The Truth About Lies
DYEAR=2015
DGENRE=Country
TTITLE0=G D Sweeney - The Night Before
TTITLE1=G D Sweeney - Livin' Is Killing Me
TTITLE2=G D Sweeney - Devil In My Wine
TTITLE3=G D Sweeney - What's On Her Mind?
TTITLE4=G D Sweeney - A Little Piece Of Home
TTITLE5=G D Sweeney - Old Flames
TTITLE6=G D Sweeney - Secrets And Lies
TTITLE7=G D Sweeney - Davey Jones' Lock-In (Last Orders)
TTITLE8=G D Sweeney - Me And Mr Tennessee
TTITLE9=G D Sweeney - Bound For Glory
TTITLE10=G D Sweeney - Country Moon
EXTD=YEAR: 2015
EXTT0=
EXTT1=
EXTT2=
EXTT3=
EXTT4=
EXTT5=
EXTT6=
EXTT7=
EXTT8=
EXTT9=
EXTT10=
PLAYORDER=
